<svg aria-hidden="true" style="position: absolute; width: 0; height: 0; overflow: hidden;" version="1.1" xmlns="http://www.w3.org/2000/svg" xmlns:xlink="http://www.w3.org/1999/xlink">
<defs>
<symbol id="icon-wrench" viewBox="0 0 32 32">
<path d="M31.342 25.559l-14.392-12.336c0.663-1.223 1.053-2.678 1.053-4.225 0-4.971-4.029-9-9-9-0.933 0-1.833 0.142-2.68 0.406l0.064-0.017 5.2 5.2c0.361 0.362 0.584 0.862 0.584 1.414s-0.223 1.052-0.584 1.414l-3.172 3.172c-0.362 0.361-0.862 0.584-1.414 0.584s-1.052-0.223-1.414-0.584l-5.2-5.2c-0.247 0.783-0.389 1.683-0.389 2.616 0 4.971 4.029 9 9 9 1.546 0 3.001-0.39 4.272-1.077l-0.048 0.024 12.336 14.392c0.338 0.404 0.841 0.658 1.405 0.658 0.514 0 0.979-0.212 1.311-0.554l0-0 3.172-3.172c0.778-0.778 0.731-2-0.104-2.716z"></path>
</symbol>
<symbol id="icon-paint" viewBox="0 0 32 32">
<path d="M32 18v-12h-6v-2c0-1.1-0.9-2-2-2h-22c-1.1 0-2 0.9-2 2v6c0 1.1 0.9 2 2 2h22c1.1 0 2-0.9 2-2v-2h4v8h-18v4h-1c-0.552 0-1 0.448-1 1v0 10c0 0.552 0.448 1 1 1v0h4c0.552 0 1-0.448 1-1v0-10c0-0.552-0.448-1-1-1v0h-1v-2h18zM24 6h-22v-2h22v2z"></path>
</symbol>
<symbol id="icon-hammer" viewBox="0 0 32 32">
<path d="M31.562 25.905l-9.423-9.423c-0.272-0.27-0.647-0.437-1.061-0.437s-0.789 0.167-1.061 0.437l-0.707 0.707-5.75-5.75 9.439-9.439h-10l-4.439 4.439-0.439-0.439h-2.121v2.121l0.439 0.439-6.439 6.439 5 5 6.439-6.439 5.75 5.75-0.707 0.707c-0.27 0.272-0.437 0.647-0.437 1.061s0.167 0.789 0.437 1.061l9.423 9.423c0.272 0.27 0.647 0.437 1.061 0.437s0.789-0.167 1.061-0.437l3.535-3.535c0.27-0.272 0.437-0.647 0.437-1.061s-0.167-0.789-0.437-1.061l0 0z"></path>
</symbol>
</defs>
</svg>
